# xmcd
# 
# Track frame offsets:
#     150
#     72965
#     121865
#     170387
#     247540
#     312412
# 
# Disc length: 4702
# 
# Revision: 1
# Processed by: cddbd v1.5.2PL0 Copyright (c) Steve Scherf et al.
# Submitted via: BonkEnc v1.0.8
# 
DISCID=43125c06
DTITLE=Woody Shaw - Blackstone Legacy
DYEAR=1970
DGENRE=Contemporary Jazz
TTITLE0=Blackstone Legacy
TTITLE1=Think On Me
TTITLE2=Lost and Found
TTITLE3=New World
TTITLE4=Boo-ann's Grand
TTITLE5=A Deed for Dolphy
EXTD=YEAR: 1970
EXTT0=
EXTT1=
EXTT2=
EXTT3=
EXTT4=
EXTT5=
PLAYORDER=
